<?xml version="1.0" encoding="UTF-8" standalone="no"?>
<!-- Created with Inkscape (http://www.inkscape.org/) -->

<svg
   xmlns:dc="http://purl.org/dc/elements/1.1/"
   xmlns:cc="http://creativecommons.org/ns#"
   xmlns:rdf="http://www.w3.org/1999/02/22-rdf-syntax-ns#"
   xmlns:svg="http://www.w3.org/2000/svg"
   xmlns="http://www.w3.org/2000/svg"
   xmlns:sodipodi="http://sodipodi.sourceforge.net/DTD/sodipodi-0.dtd"
   xmlns:inkscape="http://www.inkscape.org/namespaces/inkscape"
   width="219.40224"
   height="225.22128"
   id="svg4110"
   version="1.1"
   inkscape:version="0.48.2 r9819"
   sodipodi:docname="elefante a colores.svg">
  <defs
     id="defs3">
    <filter
       color-interpolation-filters="sRGB"
       id="filter4496-1-4-3"
       inkscape:label="Drop shadow"
       width="1.5"
       height="1.5"
       x="-0.25"
       y="-0.25">
      <feGaussianBlur
         id="feGaussianBlur4498-74-3-6"
         in="SourceAlpha"
         stdDeviation="3,000000"
         result="blur" />
      <feColorMatrix
         id="feColorMatrix4500-4-1-5"
         result="bluralpha"
         type="matrix"
         values="1 0 0 0 0 0 1 0 0 0 0 0 1 0 0 0 0 0 0,250000 0 " />
      <feOffset
         id="feOffset4502-5-7-6"
         in="bluralpha"
         dx="0,000000"
         dy="0,000000"
         result="offsetBlur" />
      <feMerge
         id="feMerge4504-4-8-3">
        <feMergeNode
           id="feMergeNode4506-2-4-9"
           in="offsetBlur" />
        <feMergeNode
           id="feMergeNode4508-8-6-4"
           in="SourceGraphic" />
      </feMerge>
    </filter>
    <filter
       color-interpolation-filters="sRGB"
       id="filter3534-5-9-4-7-2"
       inkscape:label="Drop shadow"
       width="1.5"
       height="1.5"
       x="-0.25"
       y="-0.25">
      <feGaussianBlur
         id="feGaussianBlur3536-1-0-42-7-9"
         in="SourceAlpha"
         stdDeviation="3,000000"
         result="blur" />
      <feColorMatrix
         id="feColorMatrix3538-0-5-8-0-3"
         result="bluralpha"
         type="matrix"
         values="1 0 0 0 0 0 1 0 0 0 0 0 1 0 0 0 0 0 0,300000 0 " />
      <feOffset
         id="feOffset3540-0-6-9-0-9"
         in="bluralpha"
         dx="0,000000"
         dy="0,000000"
         result="offsetBlur" />
      <feMerge
         id="feMerge3542-1-7-7-6-0">
        <feMergeNode
           id="feMergeNode3544-3-74-20-7-8"
           in="offsetBlur" />
        <feMergeNode
           id="feMergeNode3546-3-0-3-7-8"
           in="SourceGraphic" />
      </feMerge>
    </filter>
    <filter
       color-interpolation-filters="sRGB"
       id="filter3520-0-6-4-9-5"
       inkscape:label="Drop shadow"
       width="1.5"
       height="1.5"
       x="-0.25"
       y="-0.25">
      <feGaussianBlur
         id="feGaussianBlur3522-0-4-0-2-0"
         in="SourceAlpha"
         stdDeviation="3,000000"
         result="blur" />
      <feColorMatrix
         id="feColorMatrix3524-0-7-26-2-9"
         result="bluralpha"
         type="matrix"
         values="1 0 0 0 0 0 1 0 0 0 0 0 1 0 0 0 0 0 0,300000 0 " />
      <feOffset
         id="feOffset3526-2-48-0-4-6"
         in="bluralpha"
         dx="0,000000"
         dy="0,000000"
         result="offsetBlur" />
      <feMerge
         id="feMerge3528-2-58-1-9-3">
        <feMergeNode
           id="feMergeNode3530-2-2-4-7-8"
           in="offsetBlur" />
        <feMergeNode
           id="feMergeNode3532-4-6-5-9-5"
           in="SourceGraphic" />
      </feMerge>
    </filter>
    <filter
       color-interpolation-filters="sRGB"
       id="filter3506-7-0-36-4-6"
       inkscape:label="Drop shadow"
       width="1.5"
       height="1.5"
       x="-0.25"
       y="-0.25">
      <feGaussianBlur
         id="feGaussianBlur3508-9-6-3-4-1"
         in="SourceAlpha"
         stdDeviation="3,000000"
         result="blur" />
      <feColorMatrix
         id="feColorMatrix3510-8-6-2-8-1"
         result="bluralpha"
         type="matrix"
         values="1 0 0 0 0 0 1 0 0 0 0 0 1 0 0 0 0 0 0,300000 0 " />
      <feOffset
         id="feOffset3512-5-4-7-7-5"
         in="bluralpha"
         dx="0,000000"
         dy="0,000000"
         result="offsetBlur" />
      <feMerge
         id="feMerge3514-4-6-07-2-9">
        <feMergeNode
           id="feMergeNode3516-7-2-4-1-8"
           in="offsetBlur" />
        <feMergeNode
           id="feMergeNode3518-8-8-8-2-4"
           in="SourceGraphic" />
      </feMerge>
    </filter>
    <filter
       color-interpolation-filters="sRGB"
       id="filter3492-6-96-18-1-8"
       inkscape:label="Drop shadow"
       width="1.5"
       height="1.5"
       x="-0.25"
       y="-0.25">
      <feGaussianBlur
         id="feGaussianBlur3494-0-0-6-5-1"
         in="SourceAlpha"
         stdDeviation="3,000000"
         result="blur" />
      <feColorMatrix
         id="feColorMatrix3496-0-70-2-5-0"
         result="bluralpha"
         type="matrix"
         values="1 0 0 0 0 0 1 0 0 0 0 0 1 0 0 0 0 0 0,300000 0 " />
      <feOffset
         id="feOffset3498-6-1-92-4-3"
         in="bluralpha"
         dx="0,000000"
         dy="0,000000"
         result="offsetBlur" />
      <feMerge
         id="feMerge3500-4-0-63-4-0">
        <feMergeNode
           id="feMergeNode3502-3-13-27-5-4"
           in="offsetBlur" />
        <feMergeNode
           id="feMergeNode3504-7-7-0-9-4"
           in="SourceGraphic" />
      </feMerge>
    </filter>
    <filter
       color-interpolation-filters="sRGB"
       id="filter3478-5-7-40-0-4"
       inkscape:label="Drop shadow"
       width="1.5"
       height="1.5"
       x="-0.25"
       y="-0.25">
      <feGaussianBlur
         id="feGaussianBlur3480-8-2-5-8-4"
         in="SourceAlpha"
         stdDeviation="3,000000"
         result="blur" />
      <feColorMatrix
         id="feColorMatrix3482-1-6-8-9-7"
         result="bluralpha"
         type="matrix"
         values="1 0 0 0 0 0 1 0 0 0 0 0 1 0 0 0 0 0 0,300000 0 " />
      <feOffset
         id="feOffset3484-0-4-0-8-6"
         in="bluralpha"
         dx="0,000000"
         dy="0,000000"
         result="offsetBlur" />
      <feMerge
         id="feMerge3486-9-5-0-8-3">
        <feMergeNode
           id="feMergeNode3488-3-2-7-1-1"
           in="offsetBlur" />
        <feMergeNode
           id="feMergeNode3490-0-0-01-0-7"
           in="SourceGraphic" />
      </feMerge>
    </filter>
    <filter
       color-interpolation-filters="sRGB"
       id="filter3464-2-2-3-4-5"
       inkscape:label="Drop shadow"
       width="1.5"
       height="1.5"
       x="-0.25"
       y="-0.25">
      <feGaussianBlur
         id="feGaussianBlur3466-6-9-7-8-9"
         in="SourceAlpha"
         stdDeviation="3,000000"
         result="blur" />
      <feColorMatrix
         id="feColorMatrix3468-4-09-4-7-6"
         result="bluralpha"
         type="matrix"
         values="1 0 0 0 0 0 1 0 0 0 0 0 1 0 0 0 0 0 0,300000 0 " />
      <feOffset
         id="feOffset3470-3-9-9-5-2"
         in="bluralpha"
         dx="0,000000"
         dy="0,000000"
         result="offsetBlur" />
      <feMerge
         id="feMerge3472-8-4-0-1-1">
        <feMergeNode
           id="feMergeNode3474-6-51-7-9-7"
           in="offsetBlur" />
        <feMergeNode
           id="feMergeNode3476-7-0-8-9-8"
           in="SourceGraphic" />
      </feMerge>
    </filter>
    <filter
       color-interpolation-filters="sRGB"
       id="filter3450-0-3-3-2-5"
       inkscape:label="Drop shadow"
       width="1.5"
       height="1.5"
       x="-0.25"
       y="-0.25">
      <feGaussianBlur
         id="feGaussianBlur3452-8-7-6-7-7"
         in="SourceAlpha"
         stdDeviation="3,000000"
         result="blur" />
      <feColorMatrix
         id="feColorMatrix3454-1-8-4-0-4"
         result="bluralpha"
         type="matrix"
         values="1 0 0 0 0 0 1 0 0 0 0 0 1 0 0 0 0 0 0,300000 0 " />
      <feOffset
         id="feOffset3456-9-86-3-6-1"
         in="bluralpha"
         dx="0,000000"
         dy="0,000000"
         result="offsetBlur" />
      <feMerge
         id="feMerge3458-8-0-9-1-8">
        <feMergeNode
           id="feMergeNode3460-1-4-3-8-5"
           in="offsetBlur" />
        <feMergeNode
           id="feMergeNode3462-6-67-1-3-9"
           in="SourceGraphic" />
      </feMerge>
    </filter>
    <filter
       color-interpolation-filters="sRGB"
       id="filter4496-1-4-3-7"
       inkscape:label="Drop shadow"
       width="1.5"
       height="1.5"
       x="-0.25"
       y="-0.25">
      <feGaussianBlur
         id="feGaussianBlur4498-74-3-6-9"
         in="SourceAlpha"
         stdDeviation="3,000000"
         result="blur" />
      <feColorMatrix
         id="feColorMatrix4500-4-1-5-3"
         result="bluralpha"
         type="matrix"
         values="1 0 0 0 0 0 1 0 0 0 0 0 1 0 0 0 0 0 0,250000 0 " />
      <feOffset
         id="feOffset4502-5-7-6-9"
         in="bluralpha"
         dx="0,000000"
         dy="0,000000"
         result="offsetBlur" />
      <feMerge
         id="feMerge4504-4-8-3-2">
        <feMergeNode
           id="feMergeNode4506-2-4-9-8"
           in="offsetBlur" />
        <feMergeNode
           id="feMergeNode4508-8-6-4-3"
           in="SourceGraphic" />
      </feMerge>
    </filter>
    <mask
       maskUnits="userSpaceOnUse"
       id="mask4281-9-3-8-0">
      <path
         style="fill:#ffffff;fill-opacity:1;stroke:#fabf27;stroke-width:0.11221304;stroke-opacity:1;display:inline"
         d="m 1847.2412,22.316224 c -7.971,-10.03596 -13.2177,-46.696568 -7.735,-54.093797 7.5559,-5.468706 43.7095,-10.236921 63.2185,-3.878266 3.8446,3.766138 7.2211,53.609602 1.2585,60.081804 -5.9625,6.47217 -48.7709,7.926336 -56.742,-2.109741 z"
         id="path4283-0-0-1-1"
         inkscape:connector-curvature="0"
         sodipodi:nodetypes="ccczz"
         inkscape:export-filename="D:\-yulia-\surtido\COLECTIVO LIBRE\elefante personal 2.png"
         inkscape:export-xdpi="300"
         inkscape:export-ydpi="300" />
    </mask>
    <filter
       color-interpolation-filters="sRGB"
       id="filter3534-5-9-4-7-2-7"
       inkscape:label="Drop shadow"
       width="1.5"
       height="1.5"
       x="-0.25"
       y="-0.25">
      <feGaussianBlur
         id="feGaussianBlur3536-1-0-42-7-9-8"
         in="SourceAlpha"
         stdDeviation="3,000000"
         result="blur" />
      <feColorMatrix
         id="feColorMatrix3538-0-5-8-0-3-9"
         result="bluralpha"
         type="matrix"
         values="1 0 0 0 0 0 1 0 0 0 0 0 1 0 0 0 0 0 0,300000 0 " />
      <feOffset
         id="feOffset3540-0-6-9-0-9-1"
         in="bluralpha"
         dx="0,000000"
         dy="0,000000"
         result="offsetBlur" />
      <feMerge
         id="feMerge3542-1-7-7-6-0-5">
        <feMergeNode
           id="feMergeNode3544-3-74-20-7-8-4"
           in="offsetBlur" />
        <feMergeNode
           id="feMergeNode3546-3-0-3-7-8-9"
           in="SourceGraphic" />
      </feMerge>
    </filter>
    <filter
       color-interpolation-filters="sRGB"
       id="filter3520-0-6-4-9-5-2"
       inkscape:label="Drop shadow"
       width="1.5"
       height="1.5"
       x="-0.25"
       y="-0.25">
      <feGaussianBlur
         id="feGaussianBlur3522-0-4-0-2-0-5"
         in="SourceAlpha"
         stdDeviation="3,000000"
         result="blur" />
      <feColorMatrix
         id="feColorMatrix3524-0-7-26-2-9-7"
         result="bluralpha"
         type="matrix"
         values="1 0 0 0 0 0 1 0 0 0 0 0 1 0 0 0 0 0 0,300000 0 " />
      <feOffset
         id="feOffset3526-2-48-0-4-6-4"
         in="bluralpha"
         dx="0,000000"
         dy="0,000000"
         result="offsetBlur" />
      <feMerge
         id="feMerge3528-2-58-1-9-3-9">
        <feMergeNode
           id="feMergeNode3530-2-2-4-7-8-9"
           in="offsetBlur" />
        <feMergeNode
           id="feMergeNode3532-4-6-5-9-5-4"
           in="SourceGraphic" />
      </feMerge>
    </filter>
    <filter
       color-interpolation-filters="sRGB"
       id="filter3506-7-0-36-4-6-5"
       inkscape:label="Drop shadow"
       width="1.5"
       height="1.5"
       x="-0.25"
       y="-0.25">
      <feGaussianBlur
         id="feGaussianBlur3508-9-6-3-4-1-9"
         in="SourceAlpha"
         stdDeviation="3,000000"
         result="blur" />
      <feColorMatrix
         id="feColorMatrix3510-8-6-2-8-1-3"
         result="bluralpha"
         type="matrix"
         values="1 0 0 0 0 0 1 0 0 0 0 0 1 0 0 0 0 0 0,300000 0 " />
      <feOffset
         id="feOffset3512-5-4-7-7-5-5"
         in="bluralpha"
         dx="0,000000"
         dy="0,000000"
         result="offsetBlur" />
      <feMerge
         id="feMerge3514-4-6-07-2-9-7">
        <feMergeNode
           id="feMergeNode3516-7-2-4-1-8-0"
           in="offsetBlur" />
        <feMergeNode
           id="feMergeNode3518-8-8-8-2-4-8"
           in="SourceGraphic" />
      </feMerge>
    </filter>
    <filter
       color-interpolation-filters="sRGB"
       id="filter3492-6-96-18-1-8-1"
       inkscape:label="Drop shadow"
       width="1.5"
       height="1.5"
       x="-0.25"
       y="-0.25">
      <feGaussianBlur
         id="feGaussianBlur3494-0-0-6-5-1-9"
         in="SourceAlpha"
         stdDeviation="3,000000"
         result="blur" />
      <feColorMatrix
         id="feColorMatrix3496-0-70-2-5-0-9"
         result="bluralpha"
         type="matrix"
         values="1 0 0 0 0 0 1 0 0 0 0 0 1 0 0 0 0 0 0,300000 0 " />
      <feOffset
         id="feOffset3498-6-1-92-4-3-7"
         in="bluralpha"
         dx="0,000000"
         dy="0,000000"
         result="offsetBlur" />
      <feMerge
         id="feMerge3500-4-0-63-4-0-8">
        <feMergeNode
           id="feMergeNode3502-3-13-27-5-4-2"
           in="offsetBlur" />
        <feMergeNode
           id="feMergeNode3504-7-7-0-9-4-5"
           in="SourceGraphic" />
      </feMerge>
    </filter>
    <filter
       color-interpolation-filters="sRGB"
       id="filter3478-5-7-40-0-4-3"
       inkscape:label="Drop shadow"
       width="1.5"
       height="1.5"
       x="-0.25"
       y="-0.25">
      <feGaussianBlur
         id="feGaussianBlur3480-8-2-5-8-4-4"
         in="SourceAlpha"
         stdDeviation="3,000000"
         result="blur" />
      <feColorMatrix
         id="feColorMatrix3482-1-6-8-9-7-9"
         result="bluralpha"
         type="matrix"
         values="1 0 0 0 0 0 1 0 0 0 0 0 1 0 0 0 0 0 0,300000 0 " />
      <feOffset
         id="feOffset3484-0-4-0-8-6-0"
         in="bluralpha"
         dx="0,000000"
         dy="0,000000"
         result="offsetBlur" />
      <feMerge
         id="feMerge3486-9-5-0-8-3-2">
        <feMergeNode
           id="feMergeNode3488-3-2-7-1-1-0"
           in="offsetBlur" />
        <feMergeNode
           id="feMergeNode3490-0-0-01-0-7-1"
           in="SourceGraphic" />
      </feMerge>
    </filter>
    <filter
       color-interpolation-filters="sRGB"
       id="filter3464-2-2-3-4-5-9"
       inkscape:label="Drop shadow"
       width="1.5"
       height="1.5"
       x="-0.25"
       y="-0.25">
      <feGaussianBlur
         id="feGaussianBlur3466-6-9-7-8-9-6"
         in="SourceAlpha"
         stdDeviation="3,000000"
         result="blur" />
      <feColorMatrix
         id="feColorMatrix3468-4-09-4-7-6-2"
         result="bluralpha"
         type="matrix"
         values="1 0 0 0 0 0 1 0 0 0 0 0 1 0 0 0 0 0 0,300000 0 " />
      <feOffset
         id="feOffset3470-3-9-9-5-2-1"
         in="bluralpha"
         dx="0,000000"
         dy="0,000000"
         result="offsetBlur" />
      <feMerge
         id="feMerge3472-8-4-0-1-1-2">
        <feMergeNode
           id="feMergeNode3474-6-51-7-9-7-0"
           in="offsetBlur" />
        <feMergeNode
           id="feMergeNode3476-7-0-8-9-8-7"
           in="SourceGraphic" />
      </feMerge>
    </filter>
    <filter
       color-interpolation-filters="sRGB"
       id="filter3450-0-3-3-2-5-3"
       inkscape:label="Drop shadow"
       width="1.5"
       height="1.5"
       x="-0.25"
       y="-0.25">
      <feGaussianBlur
         id="feGaussianBlur3452-8-7-6-7-7-1"
         in="SourceAlpha"
         stdDeviation="3,000000"
         result="blur" />
      <feColorMatrix
         id="feColorMatrix3454-1-8-4-0-4-1"
         result="bluralpha"
         type="matrix"
         values="1 0 0 0 0 0 1 0 0 0 0 0 1 0 0 0 0 0 0,300000 0 " />
      <feOffset
         id="feOffset3456-9-86-3-6-1-9"
         in="bluralpha"
         dx="0,000000"
         dy="0,000000"
         result="offsetBlur" />
      <feMerge
         id="feMerge3458-8-0-9-1-8-0">
        <feMergeNode
           id="feMergeNode3460-1-4-3-8-5-5"
           in="offsetBlur" />
        <feMergeNode
           id="feMergeNode3462-6-67-1-3-9-6"
           in="SourceGraphic" />
      </feMerge>
    </filter>
    <filter
       inkscape:collect="always"
       id="filter4029"
       x="-0.18141267"
       width="1.3628253"
       y="-0.19396228"
       height="1.3879246"
       color-interpolation-filters="sRGB">
      <feGaussianBlur
         inkscape:collect="always"
         stdDeviation="7.1066121"
         id="feGaussianBlur4031" />
    </filter>
    <filter
       inkscape:collect="always"
       id="filter4033"
       color-interpolation-filters="sRGB">
      <feGaussianBlur
         inkscape:collect="always"
         stdDeviation="2.8607538"
         id="feGaussianBlur4035" />
    </filter>
    <filter
       inkscape:collect="always"
       id="filter4037"
       color-interpolation-filters="sRGB">
      <feGaussianBlur
         inkscape:collect="always"
         stdDeviation="2.3488887"
         id="feGaussianBlur4039" />
    </filter>
    <filter
       inkscape:collect="always"
       id="filter4041"
       color-interpolation-filters="sRGB">
      <feGaussianBlur
         inkscape:collect="always"
         stdDeviation="2.0320693"
         id="feGaussianBlur4043" />
    </filter>
    <filter
       inkscape:collect="always"
       id="filter4045"
       color-interpolation-filters="sRGB">
      <feGaussianBlur
         inkscape:collect="always"
         stdDeviation="1.754927"
         id="feGaussianBlur4047" />
    </filter>
    <filter
       inkscape:collect="always"
       id="filter4049"
       color-interpolation-filters="sRGB">
      <feGaussianBlur
         inkscape:collect="always"
         stdDeviation="1.5347168"
         id="feGaussianBlur4051" />
    </filter>
    <filter
       inkscape:collect="always"
       id="filter4053"
       color-interpolation-filters="sRGB">
      <feGaussianBlur
         inkscape:collect="always"
         stdDeviation="1.3729002"
         id="feGaussianBlur4055" />
    </filter>
    <clipPath
       clipPathUnits="userSpaceOnUse"
       id="clipPath4189-5">
      <path
         style="fill:#ffffff;fill-opacity:1;stroke:none;display:inline"
         d="m 444.09301,180.7147 c 15.10268,-11.49605 69.78299,-19.12531 80.68226,-11.24753 7.98603,10.86637 14.3439,62.9044 4.47906,91.00336 -5.68497,5.54261 -79.95097,10.50671 -89.46342,1.93617 -9.5124,-8.57041 -10.80076,-70.19576 4.3021,-81.692 z"
         id="path4191-8"
         inkscape:connector-curvature="0"
         sodipodi:nodetypes="ccczz"
         inkscape:export-filename="/home/celeste/Escritorio/Juli/elefante_jornadas.png"
         inkscape:export-xdpi="90"
         inkscape:export-ydpi="90" />
    </clipPath>
  </defs>
  <sodipodi:namedview
     inkscape:document-units="mm"
     id="base"
     pagecolor="#ffffff"
     bordercolor="#666666"
     borderopacity="1.0"
     inkscape:pageopacity="0.0"
     inkscape:pageshadow="2"
     inkscape:zoom="0.88200003"
     inkscape:cx="260.81646"
     inkscape:cy="50.709351"
     inkscape:current-layer="g4757"
     showgrid="false"
     units="px"
     inkscape:window-width="1366"
     inkscape:window-height="744"
     inkscape:window-x="0"
     inkscape:window-y="24"
     inkscape:window-maximized="1"
     fit-margin-top="0"
     fit-margin-left="0"
     fit-margin-right="0"
     fit-margin-bottom="0" />
  <metadata
     id="metadata4">
    <rdf:RDF>
      <cc:Work
         rdf:about="">
        <dc:format>image/svg+xml</dc:format>
        <dc:type
           rdf:resource="http://purl.org/dc/dcmitype/StillImage" />
        <dc:title></dc:title>
      </cc:Work>
    </rdf:RDF>
  </metadata>
  <g
     inkscape:label="Layer 1"
     inkscape:groupmode="layer"
     id="layer1"
     transform="translate(-95.997389,-682.74381)">
    <g
       id="g4757"
       transform="translate(-62.629458,672.76159)">
      <g
         id="g3260">
        <g
           id="g3891">
          <path
             style="opacity:0.39080458;fill:#4d4d4d;stroke:none;filter:url(#filter4053)"
             d="M 250.3125,47.21875 C 208.07868,47.108055 144.51483,59.843685 122.46875,76.625 91.79558,99.973302 94.43078,225.12517 113.75,242.53125 c 19.31932,17.40635 170.1416,7.31927 181.6875,-3.9375 20.03501,-57.06762 7.12549,-162.743433 -9.09375,-184.8125 -6.22572,-4.499827 -19.50497,-6.519184 -36.03125,-6.5625 z"
             transform="translate(62.629458,-20.39941)"
             id="path2816-7-2-2-9-6-0-4-6-8-7-8-0-2-2-6-8-1"
             inkscape:connector-curvature="0" />
          <path
             style="fill:#df0000;stroke:none"
             d="M 250.3125,47.21875 C 208.07868,47.108055 144.51483,59.843685 122.46875,76.625 91.79558,99.973302 94.43078,225.12517 113.75,242.53125 c 19.31932,17.40635 170.1416,7.31927 181.6875,-3.9375 20.03501,-57.06762 7.12549,-162.743433 -9.09375,-184.8125 -6.22572,-4.499827 -19.50497,-6.519184 -36.03125,-6.5625 z"
             transform="translate(62.629458,-20.39941)"
             id="path2816-7-2-2-9-6-0-4-6-8-7-8-0-2-2-6-8-1-9"
             inkscape:connector-curvature="0" />
          <path
             style="opacity:0.39080458;fill:#4d4d4d;stroke:none;filter:url(#filter4049)"
             d="M 250.3125,47.21875 C 208.07868,47.108055 144.51483,59.843685 122.46875,76.625 c -0.87486,0.665939 -1.71017,1.423278 -2.53125,2.25 -12.41845,24.9976 -17.49068,53.63387 -12.84375,82.875 5.94858,37.43183 26.69067,68.93176 55.59375,89.875 51.58217,1.85052 124.84058,-5.31989 132.75,-13.03125 20.03501,-57.06762 7.12549,-162.743433 -9.09375,-184.8125 -6.22572,-4.499827 -19.50497,-6.519184 -36.03125,-6.5625 z"
             transform="translate(62.629458,-20.39941)"
             id="path2816-7-2-2-9-6-9-7-4-0-8-4-6-9-4-3-1"
             inkscape:connector-curvature="0" />
          <path
             style="fill:#ffa713;stroke:none"
             d="M 250.3125,47.21875 C 208.07868,47.108055 144.51483,59.843685 122.46875,76.625 c -0.87486,0.665939 -1.71017,1.423278 -2.53125,2.25 -12.41845,24.9976 -17.49068,53.63387 -12.84375,82.875 5.94858,37.43183 26.69067,68.93176 55.59375,89.875 51.58217,1.85052 124.84058,-5.31989 132.75,-13.03125 20.03501,-57.06762 7.12549,-162.743433 -9.09375,-184.8125 -6.22572,-4.499827 -19.50497,-6.519184 -36.03125,-6.5625 z"
             transform="translate(62.629458,-20.39941)"
             id="path2816-7-2-2-9-6-9-7-4-0-8-4-6-9-4-3-1-7"
             inkscape:connector-curvature="0" />
          <path
             style="opacity:0.39080458;fill:#4d4d4d;fill-opacity:1;stroke:none;filter:url(#filter4045)"
             d="m 250.3125,47.21875 c -31.20324,-0.08178 -74.04196,6.828468 -103.1875,17.21875 -0.007,0.01222 -0.0238,0.01903 -0.0312,0.03125 -25.3686,41.69913 -24.32317,95.38695 7,136.0625 22.27451,28.92516 55.37918,45.42496 90.03125,48.28125 26.36637,-2.52384 47.29183,-6.29877 51.3125,-10.21875 20.03501,-57.06762 7.12549,-162.743433 -9.09375,-184.8125 -6.22572,-4.499827 -19.50497,-6.519184 -36.03125,-6.5625 z"
             transform="translate(62.629458,-20.39941)"
             id="path2816-7-2-2-9-3-5-0-1-3-8-7-50-5-1-5"
             inkscape:connector-curvature="0" />
          <path
             style="fill:#ffcd01;fill-opacity:1;stroke:none"
             d="m 250.3125,47.21875 c -31.20324,-0.08178 -74.04196,6.828468 -103.1875,17.21875 -0.007,0.01222 -0.0238,0.01903 -0.0312,0.03125 -25.3686,41.69913 -24.32317,95.38695 7,136.0625 22.27451,28.92516 55.37918,45.42496 90.03125,48.28125 26.36637,-2.52384 47.29183,-6.29877 51.3125,-10.21875 20.03501,-57.06762 7.12549,-162.743433 -9.09375,-184.8125 -6.22572,-4.499827 -19.50497,-6.519184 -36.03125,-6.5625 z"
             transform="translate(62.629458,-20.39941)"
             id="path2816-7-2-2-9-3-5-0-1-3-8-7-50-5-1-5-6"
             inkscape:connector-curvature="0" />
          <path
             style="opacity:0.39080458;fill:#4d4d4d;stroke:none;filter:url(#filter4041)"
             d="m 250.3125,47.21875 c -23.09861,-0.06054 -52.54565,3.724337 -78.125,9.90625 -2.43426,3.469135 -4.69896,7.100167 -6.75,10.90625 -28.29472,52.50618 -7.5611,116.62047 46.3125,143.1875 28.85351,14.22872 61.37004,14.81868 89.6875,4.21875 10.80708,-58.77498 -0.88188,-142.318559 -15.09375,-161.65625 -6.22572,-4.499827 -19.50497,-6.519184 -36.03125,-6.5625 z"
             transform="translate(62.629458,-20.39941)"
             id="path2816-7-2-2-4-8-6-9-1-0-5-1-3-8-9"
             inkscape:connector-curvature="0" />
          <path
             style="fill:#ffb53b;stroke:none"
             d="m 250.3125,47.21875 c -23.09861,-0.06054 -52.54565,3.724337 -78.125,9.90625 -2.43426,3.469135 -4.69896,7.100167 -6.75,10.90625 -28.29472,52.50618 -7.5611,116.62047 46.3125,143.1875 28.85351,14.22872 61.37004,14.81868 89.6875,4.21875 10.80708,-58.77498 -0.88188,-142.318559 -15.09375,-161.65625 -6.22572,-4.499827 -19.50497,-6.519184 -36.03125,-6.5625 z"
             transform="translate(62.629458,-20.39941)"
             id="path2816-7-2-2-4-8-6-9-1-0-5-1-3-8-9-2"
             inkscape:connector-curvature="0" />
          <path
             style="opacity:0.39080458;fill:#4d4d4d;stroke:none;filter:url(#filter4037)"
             d="M 250.3125,47.21875 C 233.13261,47.17372 212.4474,49.263254 192.4375,52.875 182.64316,65.619055 176.03489,80.904968 174,97.71875 c -6.12941,50.6457 31.30762,95.90389 83.59375,101.0625 16.49411,1.62733 32.50168,-0.93001 46.875,-6.78125 4.72848,-55.54686 -5.71878,-121.337956 -18.125,-138.21875 -6.22572,-4.499827 -19.50497,-6.519184 -36.03125,-6.5625 z"
             transform="translate(62.629458,-20.39941)"
             id="path2816-7-2-5-4-8-4-8-4-6-1-0-9-8"
             inkscape:connector-curvature="0" />
          <path
             style="fill:#018000;stroke:none"
             d="M 250.3125,47.21875 C 233.13261,47.17372 212.4474,49.263254 192.4375,52.875 182.64316,65.619055 176.03489,80.904968 174,97.71875 c -6.12941,50.6457 31.30762,95.90389 83.59375,101.0625 16.49411,1.62733 32.50168,-0.93001 46.875,-6.78125 4.72848,-55.54686 -5.71878,-121.337956 -18.125,-138.21875 -6.22572,-4.499827 -19.50497,-6.519184 -36.03125,-6.5625 z"
             transform="translate(62.629458,-20.39941)"
             id="path2816-7-2-5-4-8-4-8-4-6-1-0-9-8-7"
             inkscape:connector-curvature="0" />
          <path
             style="opacity:0.39080458;fill:#4d4d4d;stroke:none;filter:url(#filter4033)"
             d="m 250.3125,47.21875 c -13.34367,-0.03497 -28.8166,1.218119 -44.4375,3.46875 -16.25905,22.268275 -19.7395,52.08437 -6.40625,77.8125 19.24704,37.13949 66.20316,51.70973 104.90625,32.53125 0.42415,-0.21018 0.83138,-0.43976 1.25,-0.65625 -0.37289,-46.67542 -9.17816,-92.846757 -19.28125,-106.59375 -6.22572,-4.499827 -19.50497,-6.519184 -36.03125,-6.5625 z"
             transform="translate(62.629458,-20.39941)"
             id="path2816-7-29-1-3-1-9-2-9-0-3-6-4"
             inkscape:connector-curvature="0" />
          <path
             style="fill:#1d4aa2;stroke:none"
             d="m 250.3125,47.21875 c -13.34367,-0.03497 -28.8166,1.218119 -44.4375,3.46875 -16.25905,22.268275 -19.7395,52.08437 -6.40625,77.8125 19.24704,37.13949 66.20316,51.70973 104.90625,32.53125 0.42415,-0.21018 0.83138,-0.43976 1.25,-0.65625 -0.37289,-46.67542 -9.17816,-92.846757 -19.28125,-106.59375 -6.22572,-4.499827 -19.50497,-6.519184 -36.03125,-6.5625 z"
             transform="translate(62.629458,-20.39941)"
             id="path2816-7-29-1-3-1-9-2-9-0-3-6-4-1"
             inkscape:connector-curvature="0" />
          <path
             style="opacity:0.39080458;fill:#4d4d4d;fill-opacity:1;stroke:none;filter:url(#filter4029)"
             d="m 258.78125,47.4375 c -1.83286,3.818354 -2.90537,8.042625 -2.96875,12.5 -0.23925,16.826092 13.66411,30.461697 31.0625,30.4375 l 0.78125,-0.03125 c 3.76576,-0.09322 7.34874,-0.805624 10.6875,-2.0625 -3.34605,-15.999609 -7.53323,-28.422197 -12,-34.5 -5.11811,-3.699272 -15.03005,-5.719583 -27.5625,-6.34375 z"
             transform="translate(62.629458,-20.39941)"
             id="path2816-6-4-5-6-9-8-8-2-4-8"
             inkscape:connector-curvature="0" />
          <path
             style="fill:#660080;fill-opacity:1;stroke:none"
             d="m 258.78125,47.4375 c -1.83286,3.818354 -2.90537,8.042625 -2.96875,12.5 -0.23925,16.826092 13.66411,30.461697 31.0625,30.4375 l 0.78125,-0.03125 c 3.76576,-0.09322 7.34874,-0.805624 10.6875,-2.0625 -3.34605,-15.999609 -7.53323,-28.422197 -12,-34.5 -5.11811,-3.699272 -15.03005,-5.719583 -27.5625,-6.34375 z"
             transform="translate(62.629458,-20.39941)"
             id="path2816-6-4-5-6-9-8-8-2-4-8-5"
             inkscape:connector-curvature="0" />
        </g>
        <path
           style="opacity:0.30855019;fill:#ffffff;fill-opacity:1;stroke:#fabf27;stroke-width:0.33362076;stroke-opacity:1;display:inline"
           d="m 185.86849,55.673554 c 8.33372,-7.134996 34.52836,-16.102112 68.24363,-22.947819 39.32292,-7.984461 84.2611,-8.028858 96.17875,0.585218 8.50127,12.903892 16.81905,45.174103 18.5164,87.914277 0.22336,5.62547 0.75448,10.88801 0.66219,16.52528 -2.64549,10.37119 -38.26381,22.22447 -112.32874,23.27086 -39.95775,0.5646 -95.18172,7.07573 -94.1266,-27.23709 0.14075,-4.57494 0.34421,-9.213 0.59333,-13.87805 1.75937,-32.940349 13.92742,-57.097681 22.26104,-64.232676 z"
           id="rect2985-1-5-5-7-2-4-7-6-3-8-8-8-7-8-5-2-12-1-3-5-2"
           inkscape:connector-curvature="0"
           sodipodi:nodetypes="cscscsssz"
           inkscape:export-filename="/home/celeste/Escritorio/Juli/elefante_jornadas.png"
           inkscape:export-xdpi="90"
           inkscape:export-ydpi="90" />
        <path
           style="fill:#ffffff;fill-opacity:1;display:inline"
           d="m 250.25657,162.33911 c -8.50624,-7.66079 -18.34128,-18.48433 -29.39755,-22.43173 -17.50944,-5.92979 -27.04072,4.43555 -29.0149,19.21613 -2.82307,12.62541 5.214,23.06405 15.26036,24.01977 8.3889,1.05782 17.82338,-4.7695 13.52997,-12.78819 -2.27302,-3.77436 -7.94016,-2.98763 -9.55331,1.32613 -0.78591,2.10141 -2.65144,3.82071 -4.14602,3.82071 l -2.71725,0 c 0.51832,-5.51876 -2.54763,-3.95721 -2.02902,-9.47599 0.65607,-5.94634 8.05018,-8.1341 13.52538,-8.60579 14.24694,1.89855 19.48958,17.7167 11.08645,26.57099 -5.73567,7.07151 -10.67561,6.94169 -20.04581,7.36216 -11.33368,-1.40239 -21.52022,-8.6457 -24.40738,-15.57947 -2.88696,-6.93393 -2.70716,-19.79649 -1.42731,-30.18552 1.89252,-15.54406 8.29932,-31.75233 20.01366,-50.632098 11.47171,-18.488663 20.22876,-25.997922 35.76724,-30.671364 12.75795,-5.216803 26.01513,-2.814939 39.58664,-1.685547 31.31097,5.703621 46.57592,7.841137 60.27402,31.103977 8.00174,13.010762 9.53584,21.271472 11.93671,35.509032 2.25285,23.06297 -1.32899,59.18577 2.584,66.92021 -6.32826,0.19314 -15.56594,0.60126 -21.90196,0.33169 1.79215,-9.11739 1.94151,-18.51242 1.94151,-27.62981 0.0233,-5.05545 -0.85002,-8.58374 -6.65186,-9.33535 l -25.12441,1.2414 -25.12432,1.24158 c -5.23346,0.36275 -7.92811,-0.66292 -7.63533,6.50242 -0.51921,9.23217 0.90081,16.97012 2.83791,27.53346 l -11.52528,-0.13872 -8.68772,0 c 1.79232,-9.4677 1.04558,-21.85082 1.04558,-33.53987 z m -38.09573,-53.0624 c -4.65868,-0.34493 -5.29577,3.19741 -5.14639,5.28098 -0.73056,3.9511 5.25866,5.98644 8.71113,4.1572 4.5248,-3.1903 4.2437,-9.43818 -3.56474,-9.43818 z"
           id="path3063-4-9-2-7-7-2-6-3-3-8-9-6-5-6-8-4-3-8-7-3-9-9-88-3-3-7-0"
           inkscape:connector-curvature="0"
           sodipodi:nodetypes="cccccssccccczcsccccccccccccccccccc"
           inkscape:export-filename="/home/celeste/Escritorio/Juli/elefante_jornadas.png"
           inkscape:export-xdpi="90.202827"
           inkscape:export-ydpi="90.202827" />
      </g>
    </g>
  </g>
</svg>
